<svg xmlns="http://www.w3.org/2000/svg" xmlns:xlink="http://www.w3.org/1999/xlink" width="56" zoomAndPan="magnify" viewBox="0 0 42 42" height="56" preserveAspectRatio="xMidYMid meet" version="1.0"><defs><clipPath id="ccaf5fad1c"><path d="M 0.488281 0 L 41.511719 0 L 41.511719 41.023438 L 0.488281 41.023438 Z M 0.488281 0 " clip-rule="nonzero"/></clipPath><clipPath id="e8b2940dcb"><path d="M 27.445312 1.90625 L 39.753906 1.90625 L 39.753906 14.210938 L 27.445312 14.210938 Z M 27.445312 1.90625 " clip-rule="nonzero"/></clipPath><clipPath id="e280681a2e"><path d="M 33.601562 1.90625 C 30.203125 1.90625 27.445312 4.660156 27.445312 8.058594 C 27.445312 11.457031 30.203125 14.210938 33.601562 14.210938 C 37 14.210938 39.753906 11.457031 39.753906 8.058594 C 39.753906 4.660156 37 1.90625 33.601562 1.90625 " clip-rule="nonzero"/></clipPath></defs><g clip-path="url(#ccaf5fad1c)"><path fill="#0093ff" d="M 21 3.730469 C 11.730469 3.730469 4.21875 11.242188 4.21875 20.511719 C 4.21875 29.78125 11.730469 37.292969 21 37.292969 C 30.269531 37.292969 37.78125 29.78125 37.78125 20.511719 C 37.78125 11.242188 30.269531 3.730469 21 3.730469 Z M 0.488281 20.511719 C 0.488281 9.183594 9.671875 0 21 0 C 32.328125 0 41.511719 9.183594 41.511719 20.511719 C 41.511719 31.839844 32.328125 41.023438 21 41.023438 C 9.671875 41.023438 0.488281 31.839844 0.488281 20.511719 Z M 0.488281 20.511719 " fill-opacity="1" fill-rule="evenodd"/></g><path fill="#0093ff" d="M 19.136719 14.296875 L 22.863281 14.296875 L 22.863281 32.941406 L 19.136719 32.941406 Z M 19.136719 14.296875 " fill-opacity="1" fill-rule="evenodd"/><path fill="#0093ff" d="M 19.136719 8.082031 L 22.863281 8.082031 L 22.863281 12.222656 L 19.136719 12.222656 Z M 19.136719 8.082031 " fill-opacity="1" fill-rule="evenodd"/><g clip-path="url(#e8b2940dcb)"><g clip-path="url(#e280681a2e)"><path fill="#ff6233" d="M 27.445312 1.90625 L 39.753906 1.90625 L 39.753906 14.210938 L 27.445312 14.210938 Z M 27.445312 1.90625 " fill-opacity="1" fill-rule="nonzero"/></g></g></svg>