<svg viewBox="0 0 597 597" fill="none" xmlns="http://www.w3.org/2000/svg">
<circle cx="298.652" cy="298.25" r="290.836" fill="#3B4859"/>
<path d="M199.219 24.8281C188.536 28.7791 178.147 33.1691 168.196 38.2907L298.725 298.177L199.219 24.8281Z" fill="#3C96FF"/>
<path d="M12.2068 247.691C10.3045 258.666 8.98752 269.934 8.25586 281.348L298.579 298.322L12.2068 247.691Z" fill="#3B4859"/>
<path d="M138.784 55.2656C129.419 61.4116 120.346 68.2892 111.713 75.4595L298.579 298.177L138.784 55.2656Z" fill="#FA4359"/>
<path d="M231.559 15.1699C220.438 17.8039 209.609 21.0232 199.073 24.8279L298.579 298.177L231.559 15.1699Z" fill="#3B4859"/>
<path d="M332.383 9.31638C321.262 8.14572 310.14 7.41406 298.58 7.41406V298.176L332.383 9.31638Z" fill="#5EC221"/>
<path d="M298.578 7.41406C287.164 7.41406 275.897 8.14572 264.775 9.31638L298.578 298.176V7.41406Z" fill="#3B4859"/>
<path d="M46.742 152.869C41.1814 162.527 36.0597 172.624 31.5234 183.16L298.58 298.323L46.742 152.869Z" fill="#3C96FF"/>
<path d="M31.5222 183.014C27.1322 193.257 23.1812 203.939 19.9619 214.768L298.579 298.177L31.5222 183.014Z" fill="#3B4859"/>
<path d="M19.9626 214.768C16.7433 225.45 14.1094 236.425 12.207 247.692L298.726 298.177L19.9626 214.768Z" fill="#FA4359"/>
<path d="M65.3244 124.627C58.5932 133.7 52.4472 143.065 46.7402 152.869L298.578 298.323L65.3244 124.627Z" fill="#3B4859"/>
<path d="M111.713 75.459C103.079 82.7756 94.8845 90.5312 87.1289 98.7258L298.725 298.323L111.713 75.459Z" fill="#3B4859"/>
<path d="M87.1287 98.7246C79.3731 106.919 72.0565 115.553 65.3252 124.625L298.579 298.322L87.1287 98.7246Z" fill="#FA4359"/>
<path d="M168.051 38.291C157.954 43.4126 148.149 48.9733 138.784 55.2656L298.579 298.324L168.051 38.291Z" fill="#3B4859"/>
<path d="M577.341 214.768C574.122 203.939 570.171 193.257 565.781 183.014L298.725 298.177L577.341 214.768Z" fill="#FA4359"/>
<path d="M565.781 183.013C561.245 172.624 556.27 162.527 550.563 152.723L298.725 298.177L565.781 183.013Z" fill="#3B4859"/>
<path d="M365.747 15.1697C354.918 12.5357 343.797 10.6334 332.383 9.31641L298.58 298.176L365.747 15.1697Z" fill="#3C96FF"/>
<path d="M585.097 247.692C583.195 236.425 580.561 225.45 577.341 214.768L298.725 298.177L585.097 247.692Z" fill="#3B4859"/>
<path d="M588.903 315.15C589.196 309.59 589.342 303.883 589.342 298.176C589.342 292.469 589.196 286.908 588.903 281.201L298.58 298.176L588.903 315.15Z" fill="#3B4859"/>
<path d="M588.901 281.348C588.316 269.934 586.999 258.813 584.95 247.691L298.432 298.176L588.901 281.348Z" fill="#FA4359"/>
<path d="M550.564 152.869C544.857 143.065 538.711 133.7 531.98 124.627L298.58 298.177L550.564 152.869Z" fill="#3C96FF"/>
<path d="M458.52 55.2656C449.154 49.1196 439.35 43.4126 429.253 38.291L298.725 298.177L458.52 55.2656Z" fill="#3C96FF"/>
<path d="M429.253 38.2907C419.156 33.1691 408.913 28.7791 398.231 24.8281L298.725 298.177L429.253 38.2907Z" fill="#3B4859"/>
<path d="M398.086 24.8279C387.55 21.0232 376.722 17.8039 365.6 15.1699L298.58 298.177L398.086 24.8279Z" fill="#FA4359"/>
<path d="M510.177 98.7258C502.421 90.5312 494.226 82.7756 485.593 75.459L298.58 298.177L510.177 98.7258Z" fill="#FA4359"/>
<path d="M486.031 75.897C477.398 68.5804 468.325 61.8491 458.96 55.7031L299.019 298.615L486.031 75.897Z" fill="#3B4859"/>
<path d="M531.98 124.625C525.249 115.553 517.932 106.919 510.177 98.7246L298.58 298.176L531.98 124.625Z" fill="#3B4859"/>
<path d="M264.923 9.31641C253.656 10.6334 242.534 12.5357 231.56 15.1697L298.58 298.176L264.923 9.31641Z" fill="#FA4359"/>
<path d="M398.086 571.671C408.768 567.72 419.158 563.33 429.109 558.209L298.58 298.322L398.086 571.671Z" fill="#3B4859"/>
<path d="M429.255 558.208C439.352 553.087 449.156 547.526 458.521 541.234L298.58 298.176L429.255 558.208Z" fill="#FA4359"/>
<path d="M458.521 541.234C467.887 535.088 476.959 528.21 485.593 521.04L298.58 298.176L458.521 541.234Z" fill="#3B4859"/>
<path d="M332.381 587.036C343.649 585.719 354.77 583.817 365.745 581.183L298.725 298.176L332.381 587.036Z" fill="#3B4859"/>
<path d="M298.58 589.085C309.994 589.085 321.262 588.353 332.383 587.182L298.58 298.322V589.085Z" fill="#3C96FF"/>
<path d="M485.593 521.04C494.226 513.723 502.421 505.968 510.177 497.773L298.58 298.176L485.593 521.04Z" fill="#3C96FF"/>
<path d="M365.745 581.329C376.866 578.695 387.695 575.476 398.231 571.671L298.725 298.322L365.745 581.329Z" fill="#FA4359"/>
<path d="M577.343 381.732C580.563 371.049 583.197 360.075 585.099 348.807L298.58 298.322L577.343 381.732Z" fill="#3B4859"/>
<path d="M565.781 413.486C570.171 403.243 574.122 392.56 577.341 381.732L298.725 298.322L565.781 413.486Z" fill="#FA4359"/>
<path d="M298.58 298.176L585.099 348.66C587.001 337.686 588.318 326.418 589.05 315.004L298.58 298.176Z" fill="#3C96FF"/>
<path d="M550.563 443.63C556.123 433.972 561.245 423.875 565.781 413.339L298.725 298.176L550.563 443.63Z" fill="#3B4859"/>
<path d="M531.978 471.872C538.71 462.8 544.856 453.434 550.563 443.63L298.725 298.176L531.978 471.872Z" fill="#FA4359"/>
<path d="M510.177 497.773C517.932 489.579 525.249 480.945 531.98 471.872L298.58 298.176L510.177 497.773Z" fill="#3B4859"/>
<path d="M12.207 348.807C14.1094 360.075 16.7433 371.049 19.9626 381.732L298.579 298.322L12.207 348.807Z" fill="#3C96FF"/>
<path d="M65.3252 471.872C72.0565 480.945 79.3731 489.579 87.1287 497.773L298.725 298.176L65.3252 471.872Z" fill="#FA4359"/>
<path d="M31.5234 413.486C36.0597 423.875 41.035 433.972 46.742 443.777L298.58 298.322L31.5234 413.486Z" fill="#FA4359"/>
<path d="M46.7402 443.63C52.4472 453.434 58.5932 462.8 65.3244 471.872L298.578 298.176L46.7402 443.63Z" fill="#3B4859"/>
<path d="M19.9619 381.732C23.1812 392.56 27.1322 403.243 31.5222 413.486L298.579 298.322L19.9619 381.732Z" fill="#3B4859"/>
<path d="M8.25586 315.15C8.84119 326.564 10.1582 337.686 12.2068 348.807L298.726 298.322L8.25586 315.15Z" fill="#3B4859"/>
<path d="M8.2554 281.348C7.96274 286.908 7.81641 292.615 7.81641 298.176C7.81641 303.737 7.96274 309.443 8.2554 315.15L298.579 298.176L8.2554 281.348Z" fill="#FA4359"/>
<path d="M168.051 558.209C178.148 563.33 188.391 567.72 199.073 571.671L298.579 298.322L168.051 558.209Z" fill="#FA4359"/>
<path d="M199.219 571.671C209.755 575.476 220.583 578.695 231.705 581.329L298.725 298.322L199.219 571.671Z" fill="#3B4859"/>
<path d="M264.923 587.036C276.044 588.353 287.312 588.938 298.726 588.938V298.176L264.923 587.036Z" fill="#3B4859"/>
<path d="M231.56 581.329C242.388 583.963 253.509 585.865 264.923 587.182L298.726 298.322L231.56 581.329Z" fill="#FA4359"/>
<path d="M111.713 521.04C120.346 528.357 129.419 535.088 138.784 541.234L298.579 298.176L111.713 521.04Z" fill="#3C96FF"/>
<path d="M138.784 541.234C148.149 547.38 157.954 553.087 168.051 558.209L298.579 298.322L138.784 541.234Z" fill="#3B4859"/>
<path d="M87.1289 497.773C94.8845 505.968 103.079 513.723 111.713 521.04L298.579 298.322L87.1289 497.773Z" fill="#3B4859"/>
<circle cx="298.902" cy="298.5" r="294" stroke="#28313F" stroke-width="8"/>
<path d="M298.902 522.5C175.372 522.5 74.9023 422.03 74.9023 298.5C74.9023 174.97 175.372 74.5 298.902 74.5C422.433 74.5 522.902 174.97 522.902 298.5C522.902 422.03 422.433 522.5 298.902 522.5Z" fill="url(#paint0_radial_11026_44189)"/>
<circle cx="298.902" cy="298.5" r="225" stroke="#28313F" stroke-width="8"/>
<defs>
<radialGradient id="paint0_radial_11026_44189" cx="0" cy="0" r="1" gradientUnits="userSpaceOnUse" gradientTransform="translate(298.904 298.434) scale(224.038)">
<stop offset="0.676481" stop-color="#1C1F29"/>
<stop offset="0.7857" stop-color="#191B22"/>
</radialGradient>
</defs>
</svg>
